<?xml version="1.0" encoding="utf-8"?>
<!-- Generator: Adobe Illustrator 19.0.0, SVG Export Plug-In . SVG Version: 6.00 Build 0)  -->
<svg version="1.1" id="Layer_1" xmlns="http://www.w3.org/2000/svg" xmlns:xlink="http://www.w3.org/1999/xlink" x="0px" y="0px"
	 viewBox="-715 1149 512 512" style="enable-background:new -715 1149 512 512;" xml:space="preserve">
<style type="text/css">
	.st0{fill:#666666;}
</style>
<path class="st0" d="M-278,1224c-48.4-48.4-112.6-75-181-75c-68.4,0-132.7,26.6-181,75s-75,112.6-75,181c0,68.4,26.6,132.7,75,181
	s112.6,75,181,75c68.4,0,132.7-26.6,181-75s75-112.6,75-181C-203,1336.6-229.6,1272.3-278,1224z M-586.7,1591.4
	c10.7-61.6,64.1-107.1,127.7-107.1c63.5,0,117,45.5,127.7,107.1c-36.3,25-80.3,39.6-127.7,39.6S-550.3,1616.4-586.7,1591.4z
	 M-540.4,1372.9c0-44.9,36.5-81.4,81.4-81.4s81.4,36.5,81.4,81.4s-36.5,81.4-81.4,81.4S-540.4,1417.8-540.4,1372.9z M-305.4,1570.6
	c-8.1-28.7-24.1-54.7-46.6-75.1c-13.8-12.5-29.5-22.3-46.4-29.3c30.5-19.9,50.7-54.3,50.7-93.4c0-61.4-50-111.4-111.4-111.4
	s-111.4,50-111.4,111.4c0,39.1,20.2,73.5,50.7,93.4c-16.9,6.9-32.6,16.8-46.4,29.3c-22.5,20.3-38.5,46.4-46.6,75.1
	c-44.5-41.3-72.4-100.2-72.4-165.6c0-124.6,101.4-226,226-226s226,101.4,226,226C-233,1470.3-260.9,1529.3-305.4,1570.6z"/>
</svg>
